<?xml version="1.0" encoding="utf-8"?>
<!-- Generator: Adobe Illustrator 16.0.0, SVG Export Plug-In . SVG Version: 6.00 Build 0)  -->
<!DOCTYPE svg PUBLIC "-//W3C//DTD SVG 1.1//EN" "http://www.w3.org/Graphics/SVG/1.1/DTD/svg11.dtd">
<svg version="1.1" id="Camada_1" xmlns="http://www.w3.org/2000/svg" xmlns:xlink="http://www.w3.org/1999/xlink" x="0px" y="0px"
	 width="994.231px" height="201.923px" viewBox="0 0 994.231 201.923" enable-background="new 0 0 994.231 201.923"
	 xml:space="preserve">
<path fill="#27476E" d="M143.596,128.113c0,0,8.554-13.452,10.181-20.236c1.635-6.785,2.514-5.77,2.855-14.052
	c0.341-8.295,0.478-13.178-2.106-21.734l-1.294-4.472l-2.506-5.844l-3.667-6.173l-3.463-5.436l-1.279-2.235l-4.142-4.628
	l-5.154-4.471l-7.133-5.436l-5.955-3.667l-4.004-1.969l-4.004-1.624l-3.463-1.431l0.475,2.847l1.564,7.872l1.832,12.494l1.423,9.915
	l0.333,5.977l0.282,4.138l-0.067,13.11c0,0-1.698,10.993-3.33,13.437c-1.624,2.45-4.274,5.91-8.679,6.321
	c-4.42,0.404-11.683-1.431-11.683-1.431L77.707,94.57l-9.64-3.667l-6.107-2.507l-10.863-1.972l-7.667,1.152l-3.607,1.494
	l-5.09,4.687l-2.04,2.439l-2.165,2.785l4.883-0.813c0,0,2.985-0.074,4.208,0.813c1.224,0.894,2.922,3.332,2.922,3.332l1.902,3.049
	l1.287,6.726l1.902,10.396l2.106,11.472l3.393,10.24l4.142,7.875l4.142,6.385l7.204,7.334l8.142,4.342l4.612,1.913l6.522,1.146
	h8.624l11.479-2.032l9.774-3.258l9.706-3.742l9.162-4.619l8.086-5.231l5.836-3.593l6.251-2.911l5.769-0.411h2.169l1.969,0.338
	l3.125,1.297l-1.631,2.236l-4.62,6.373l-6.585,6.515l-8.004,6.937l-7.813,5.221l-5.569,2.985l-9.848,4.345l-2.91,0.945
	l-21.371,4.149H88.274c0,0-38.752-7.205-52.43-26.12c-13.677-18.936-18.242-20.293-23.024-41.953
	c-4.79-21.645-2.106-11.396-2.106-11.396S10.087,91.258,12.137,84.2c2.046-7.071,3.185-15.054,3.185-15.054l5.247-11.394
	l5.933-9.577l6.606-8.435l10.945-10.037l10.485-7.289L69.58,16.26l9.803-3.186l12.083-1.604h10.025l10.489,1.142l13.685,3.422
	l6.83,2.288l11.171,5.694l8.668,5.922l13.9,14.582l8.895,13.918l5.013,11.397l2.97,10.935l2.05,16.184v3.155l-3.875,9.154
	l-5.932,7.066l-6.151,5.928l-8.442,5.243l-6.147,2.28l-6.844-0.227L143.596,128.113z"/>
<g>
	<path fill="#27476E" d="M214.816,14.16h44.744v171.395h-44.744V14.16z"/>
	<path fill="#27476E" d="M396.965,55.603c-7.664-4.157-15.243-6.235-22.739-6.235c-8.642,0-16.503,2.162-23.594,6.479
		c-7.09,4.321-12.676,10.269-16.748,17.849c-4.076,7.58-6.113,16.015-6.113,25.306c0,9.291,2.037,17.727,6.113,25.306
		c4.072,7.579,9.658,13.531,16.748,17.849c7.091,4.32,14.953,6.479,23.594,6.479c7.007,0,14.342-1.792,22.005-5.379
		c7.66-3.584,14.505-8.474,20.538-14.671l26.162,28.118c-9.291,9.78-20.335,17.565-33.13,23.35c-12.798,5.783-25.47,8.68-38.02,8.68
		c-16.955,0-32.274-3.912-45.966-11.736c-13.692-7.824-24.45-18.498-32.274-32.029c-7.824-13.527-11.736-28.687-11.736-45.477
		c0-16.626,3.992-31.622,11.98-44.989c7.984-13.363,18.949-23.877,32.885-31.541c13.937-7.66,29.542-11.491,46.822-11.491
		c12.714,0,25.264,2.651,37.653,7.946c12.385,5.298,22.899,12.511,31.541,21.638L416.77,72.351
		C411.227,65.344,404.625,59.759,396.965,55.603z"/>
	<path fill="#27476E" d="M461.999,14.16h135.208v35.697h-90.465v32.03h81.663v35.453l-81.663,0.244v32.273h92.91v35.697H461.999
		V14.16z"/>
	<path fill="#27476E" d="M744.149,14.16h41.565v171.395h-39.12L668.843,83.108v102.446h-41.81V14.16h39.364l77.995,103.18
		L744.149,14.16z"/>
	<path fill="#27476E" d="M802.094,14.16h48.167l42.787,123.962L936.081,14.16h45.966l-66.993,171.395h-46.455L802.094,14.16z"/>
</g>
</svg>
